<svg width="500" height="500" viewBox="0 0 500 500" fill="none" xmlns="http://www.w3.org/2000/svg">
<g clip-path="url(#clip0_1101_411)">
<mask id="mask0_1101_411" style="mask-type:luminance" maskUnits="userSpaceOnUse" x="20" y="19" width="462" height="462">
<path d="M20.5625 19.3384H481.563V480.338H20.5625V19.3384Z" fill="white"/>
</mask>
<g mask="url(#mask0_1101_411)">
<path d="M472.094 249.995C472.094 239.109 483.255 227.578 481.781 217.151C480.214 206.448 466.281 198.515 463.235 188.364C460.193 178.031 467.573 163.823 463.146 154.135C458.625 144.354 442.938 140.667 437.125 131.713C431.219 122.672 434.36 106.989 427.255 98.9634C420.151 90.8436 404.094 91.6717 395.886 84.6613C387.766 77.6509 386.292 61.7811 377.156 55.9686C368.115 50.1561 352.891 55.4165 343.021 50.9842C333.24 46.5571 327.334 31.703 316.906 28.6561C306.667 25.7082 293.568 35.0259 282.771 33.4582C272.162 31.979 262.198 19.3384 251.219 19.3384C240.24 19.3384 230.276 31.979 219.755 33.4582C208.964 35.0259 195.86 25.7082 185.62 28.6561C175.193 31.703 169.198 46.5571 159.511 50.9842C149.636 55.4165 134.412 50.2498 125.37 55.9686C116.24 61.7811 114.761 77.6509 106.641 84.6613C98.521 91.6717 82.3752 90.8436 75.271 98.9634C68.1668 106.989 71.3075 122.672 65.4012 131.713C59.5887 140.667 43.9012 144.354 39.3804 154.135C34.9533 163.823 42.3335 177.937 39.2918 188.364C36.245 198.515 22.3127 206.448 20.745 217.151C19.271 227.578 30.4325 239.109 30.4325 249.995C30.4325 260.885 19.271 272.417 20.745 282.844C22.3127 293.547 36.245 301.479 39.2918 311.63C42.3335 321.963 34.9533 336.172 39.3804 345.859C43.9012 355.635 59.5887 359.328 65.4012 368.276C71.3075 377.318 68.1668 393.005 75.271 401.031C82.3752 409.151 98.4325 408.318 106.641 415.333C114.761 422.344 116.24 438.213 125.37 444.026C134.412 449.838 149.636 444.578 159.511 449.005C169.287 453.437 175.193 468.292 185.62 471.333C195.86 474.286 208.964 464.969 219.755 466.536C230.276 468.01 240.24 480.651 251.219 480.651C262.198 480.651 272.162 468.01 282.677 466.536C293.474 464.969 306.573 474.286 316.818 471.333C327.24 468.292 333.24 453.437 342.927 449.005C352.797 444.578 368.021 449.745 377.063 444.026C386.198 438.213 387.672 422.344 395.792 415.333C403.912 408.318 420.057 409.151 427.162 401.031C434.266 393.005 431.13 377.318 437.037 368.276C442.849 359.328 458.531 355.635 463.052 345.859C467.479 336.172 460.099 322.052 463.146 311.63C466.188 301.479 480.12 293.547 481.688 282.844C483.255 272.417 472.094 260.885 472.094 249.995Z" fill="#03989E"/>
</g>
<mask id="mask1_1101_411" style="mask-type:luminance" maskUnits="userSpaceOnUse" x="58" y="57" width="388" height="388">
<path d="M58.5469 57.3281H445.547V444.328H58.5469V57.3281Z" fill="white"/>
</mask>
<g mask="url(#mask1_1101_411)">
<path d="M252.047 57.3281C145.313 57.3281 58.5469 144.172 58.5469 250.828C58.5469 357.563 145.313 444.328 252.047 444.328C358.703 444.328 445.547 357.563 445.547 250.828C445.547 144.172 358.703 57.3281 252.047 57.3281ZM252.047 429.234C153.672 429.234 73.6406 349.203 73.6406 250.828C73.6406 152.453 153.672 72.4219 252.047 72.4219C350.422 72.4219 430.453 152.453 430.453 250.828C430.453 349.203 350.422 429.234 252.047 429.234Z" fill="white"/>
</g>
<path d="M252.047 82.4844C159.245 82.4844 83.7031 158.026 83.7031 250.828C83.7031 343.63 159.245 419.172 252.047 419.172C344.849 419.172 420.391 343.63 420.391 250.828C420.391 158.026 344.849 82.4844 252.047 82.4844Z" fill="white"/>
<path d="M376.276 195.193C358.313 139.661 314.62 110.182 269.276 103.922C284.578 122.63 293.938 147.12 293.938 174.016C293.938 232.714 249.745 280.292 195.219 280.292C164.682 280.292 137.391 265.349 119.281 241.901C131.682 310.073 215.755 364.469 276.406 361.495C369.724 356.927 407.375 291.313 376.276 195.193Z" fill="#F36933"/>
<path d="M377.39 353.323C375.963 353.323 372.698 352.839 370.64 348.755C356.208 321.302 330.849 328.12 316.469 335.01C314.713 336.521 313.057 337.344 311.786 337.974C311.255 338.224 310.713 338.396 310.135 338.505C275.745 356.672 229.693 356.552 186.552 338.104C151.495 323.865 118.969 296.562 97.453 263.224C95.88 260.792 96.2446 257.589 98.3332 255.594C100.401 253.589 103.604 253.323 105.984 254.979C115.932 261.917 125.833 268.578 137.448 273.667C177.885 292.026 218.318 293.536 250.01 278.307C205.734 243.193 168.505 198.771 140.651 163.437C134.838 156.38 128.708 148.969 124.526 141.417C123.104 138.818 123.755 135.568 126.078 133.74C128.422 131.901 131.734 132.026 133.896 134.031C154.797 153.187 183.01 174.948 206.677 191.896C197.307 180.677 189.026 170.172 182.5 161.625C154.661 125.245 155.109 124.807 159.281 120.661C161.635 118.344 165.495 118.365 167.849 120.687C229.109 181.885 287.156 219.464 296.109 225.125C296.354 224.276 296.547 223.479 296.693 222.766C305.974 184.786 295.687 142.37 268.542 106.146C266.812 103.849 266.958 100.646 268.864 98.4948C270.786 96.3437 273.953 95.8593 276.432 97.2968C343.422 136.531 380.396 210.156 364.333 272.375C364.224 272.75 364.094 273.12 363.932 273.474C387.989 304.344 389.26 337.682 384.385 348.245C382.307 352.755 378.864 353.312 377.484 353.333C377.458 353.323 377.422 353.323 377.39 353.323ZM127.791 282.526C145.864 301.917 167.937 317.51 191.229 326.958C231.552 344.245 274.281 344.328 305.578 327.25C306.193 326.911 306.844 326.682 307.536 326.573C308.031 326.307 308.406 326.042 308.781 325.677C309.239 325.234 309.771 324.844 310.349 324.557C320.614 319.49 352.958 306.615 374.557 332.797C374.198 320.469 369.76 299.401 352.562 278.573C351.047 276.734 350.76 274.187 351.812 272.047C352.125 270.812 352.38 269.833 352.792 268.844C365.229 219.635 341.135 162.448 294.239 124.286C311.255 157.12 316.489 192.776 308.515 225.401C307.922 228.375 306.614 232.51 305.005 236.495C304.354 238.104 303.062 239.339 301.432 239.917C299.797 240.5 298.01 240.354 296.5 239.531C294.312 238.333 292.51 237.224 290.781 236.026C287.505 233.995 252.052 211.682 207.109 173.318C219.151 188.219 233.026 204.427 247.219 219.115C249.307 221.292 249.489 224.651 247.64 227.031C245.791 229.401 242.453 230.052 239.854 228.557C225.458 220.276 196.375 200.198 168.14 178.297C194.614 210.375 227.307 246.13 264.708 274.38C266.302 275.599 267.198 277.521 267.088 279.531C266.979 281.536 265.89 283.349 264.177 284.385C228.036 306.135 180.047 306.266 132.531 284.703C130.922 284 129.338 283.266 127.791 282.526Z" fill="black"/>
<mask id="mask2_1101_411" style="mask-type:luminance" maskUnits="userSpaceOnUse" x="0" y="374" width="500" height="61">
<path d="M0 374.807H500V434.807H0V374.807Z" fill="white"/>
</mask>
<g mask="url(#mask2_1101_411)">
<path d="M0 374.807H500V434.807H0V374.807Z" fill="#F2A22C"/>
</g>
<path d="M163.268 412.482H168.622C169.663 412.482 170.413 412.274 170.872 411.857C171.34 411.43 171.58 410.722 171.58 409.732V406.961C171.58 405.977 171.335 405.284 170.851 404.878C170.377 404.461 169.601 404.253 168.518 404.253H163.268C162.919 404.253 162.747 404.43 162.747 404.774V411.961C162.747 412.31 162.919 412.482 163.268 412.482ZM163.268 399.336H168.143C169.153 399.336 169.898 399.123 170.372 398.691C170.856 398.264 171.101 397.555 171.101 396.566V394.711C171.101 393.727 170.861 393.019 170.393 392.586C169.934 392.159 169.195 391.941 168.184 391.941H163.268C162.919 391.941 162.747 392.123 162.747 392.482V398.816C162.747 399.165 162.919 399.336 163.268 399.336ZM156.705 416.545V387.899C156.705 387.232 157.038 386.899 157.705 386.899H169.143C171.653 386.899 173.59 387.566 174.955 388.899C176.314 390.232 176.997 392.139 176.997 394.607V396.566C176.997 399.274 175.747 401.024 173.247 401.816C174.507 402.014 175.523 402.534 176.288 403.378C177.049 404.211 177.434 405.409 177.434 406.961V409.816C177.434 412.305 176.747 414.211 175.372 415.545C174.007 416.878 172.09 417.545 169.622 417.545H157.705C157.038 417.545 156.705 417.211 156.705 416.545Z" fill="white"/>
<path d="M203.102 386.899H207.123C207.815 386.899 208.164 387.222 208.164 387.857V409.774C208.164 412.264 207.466 414.18 206.081 415.524C204.706 416.873 202.774 417.545 200.289 417.545H195.06C192.544 417.545 190.602 416.878 189.227 415.545C187.862 414.211 187.185 412.29 187.185 409.774V387.899C187.185 387.232 187.518 386.899 188.185 386.899H192.248C192.914 386.899 193.248 387.232 193.248 387.899V409.482C193.248 410.514 193.461 411.243 193.893 411.67C194.32 412.086 195.029 412.295 196.018 412.295H199.289C200.315 412.295 201.039 412.086 201.456 411.67C201.883 411.243 202.102 410.514 202.102 409.482V387.899C202.102 387.232 202.435 386.899 203.102 386.899Z" fill="white"/>
<path d="M224.966 412.295H230.174C231.185 412.295 231.909 412.086 232.341 411.67C232.768 411.243 232.987 410.514 232.987 409.482V394.941C232.987 393.93 232.768 393.206 232.341 392.774C231.909 392.347 231.185 392.128 230.174 392.128H224.966C224.617 392.128 224.445 392.31 224.445 392.67V411.774C224.445 412.123 224.617 412.295 224.966 412.295ZM218.403 416.545V387.899C218.403 387.232 218.737 386.899 219.403 386.899H231.174C233.643 386.899 235.57 387.576 236.945 388.92C238.33 390.269 239.028 392.185 239.028 394.67V409.774C239.028 412.264 238.33 414.18 236.945 415.524C235.57 416.873 233.643 417.545 231.174 417.545H219.403C218.737 417.545 218.403 417.211 218.403 416.545Z" fill="white"/>
<path d="M255.6 412.295H260.808C261.819 412.295 262.543 412.086 262.975 411.67C263.402 411.243 263.621 410.514 263.621 409.482V394.941C263.621 393.93 263.402 393.206 262.975 392.774C262.543 392.347 261.819 392.128 260.808 392.128H255.6C255.251 392.128 255.079 392.31 255.079 392.67V411.774C255.079 412.123 255.251 412.295 255.6 412.295ZM249.038 416.545V387.899C249.038 387.232 249.371 386.899 250.038 386.899H261.808C264.277 386.899 266.204 387.576 267.579 388.92C268.965 390.269 269.663 392.185 269.663 394.67V409.774C269.663 412.264 268.965 414.18 267.579 415.524C266.204 416.873 264.277 417.545 261.808 417.545H250.038C249.371 417.545 249.038 417.211 249.038 416.545Z" fill="white"/>
<path d="M285.964 387.899V416.545C285.964 417.211 285.631 417.545 284.964 417.545H280.901C280.235 417.545 279.901 417.211 279.901 416.545V387.899C279.901 387.232 280.235 386.899 280.901 386.899H284.964C285.631 386.899 285.964 387.232 285.964 387.899Z" fill="white"/>
<path d="M313.265 417.545H297.682C297.015 417.545 296.682 417.211 296.682 416.545V387.899C296.682 387.232 297.015 386.899 297.682 386.899H313.265C313.9 386.899 314.223 387.232 314.223 387.899V391.128C314.223 391.795 313.9 392.128 313.265 392.128H303.307C302.916 392.128 302.723 392.31 302.723 392.67V398.857C302.723 399.206 302.916 399.378 303.307 399.378H311.452C312.119 399.378 312.452 399.711 312.452 400.378V403.628C312.452 404.295 312.119 404.628 311.452 404.628H303.307C302.916 404.628 302.723 404.805 302.723 405.149V411.774C302.723 412.123 302.916 412.295 303.307 412.295H313.265C313.9 412.295 314.223 412.628 314.223 413.295V416.545C314.223 417.211 313.9 417.545 313.265 417.545Z" fill="white"/>
<path d="M323.02 409.732V408.774C323.02 408.107 323.354 407.774 324.02 407.774H328.083C328.749 407.774 329.083 408.107 329.083 408.774V409.149C329.083 410.357 329.317 411.185 329.791 411.628C330.26 412.076 331.135 412.295 332.416 412.295H334.645C335.895 412.295 336.76 412.06 337.249 411.586C337.749 411.118 337.999 410.227 337.999 408.92V408.336C337.999 407.42 337.624 406.722 336.874 406.232C336.124 405.732 335.192 405.435 334.083 405.336C332.968 405.243 331.77 405.06 330.479 404.795C329.197 404.534 327.999 404.185 326.874 403.753C325.76 403.326 324.833 402.482 324.083 401.232C323.343 399.972 322.979 398.352 322.979 396.378V394.711C322.979 392.243 323.671 390.326 325.062 388.961C326.463 387.586 328.406 386.899 330.895 386.899H335.645C338.156 386.899 340.114 387.586 341.52 388.961C342.921 390.326 343.624 392.243 343.624 394.711V395.628C343.624 396.295 343.281 396.628 342.604 396.628H338.562C337.895 396.628 337.562 396.295 337.562 395.628V395.336C337.562 394.102 337.317 393.264 336.833 392.816C336.359 392.357 335.489 392.128 334.229 392.128H332.374C331.067 392.128 330.176 392.378 329.708 392.878C329.249 393.368 329.02 394.326 329.02 395.753V396.67C329.02 398.159 330.322 399.014 332.937 399.232C335.63 399.456 338.031 399.998 340.145 400.857C341.255 401.347 342.176 402.201 342.916 403.42C343.666 404.644 344.041 406.206 344.041 408.107V409.732C344.041 412.206 343.338 414.128 341.937 415.503C340.546 416.868 338.609 417.545 336.124 417.545H330.937C328.447 417.545 326.505 416.868 325.104 415.503C323.713 414.128 323.02 412.206 323.02 409.732Z" fill="white"/>
</g>
<defs>
<clipPath id="clip0_1101_411">
<rect width="500" height="500" fill="white"/>
</clipPath>
</defs>
</svg>
